<?xml version="1.0" encoding="UTF-8"?>
<svg xmlns="http://www.w3.org/2000/svg" viewBox="0 0 478.62 100.64">
  <defs>
    <style>
      .cls-1 {
        fill: #0a0169;
      }

      .cls-2 {
        fill: #240a61;
      }

      .cls-3 {
        fill: #008e97;
      }

      .cls-4 {
        fill: #17005e;
      }

      .cls-5 {
        fill: #180064;
      }

      .cls-6 {
        fill: #01feb6;
      }

      .cls-7 {
        fill: #170141;
      }

      .cls-8 {
        fill: #170047;
      }

      .cls-9 {
        fill: #166f70;
      }

      .cls-10 {
        fill: #0a0059;
      }

      .cls-11 {
        fill: #00eafe;
      }

      .cls-12 {
        fill: #00f9fd;
      }

      .cls-13 {
        fill: #5a0d43;
      }

      .cls-14 {
        fill: #520842;
      }

      .cls-15 {
        fill: #0fe;
      }

      .cls-16 {
        fill: #170059;
      }

      .cls-17 {
        fill: #10488b;
      }

      .cls-18 {
        fill: #170040;
      }

      .cls-19 {
        fill: #160063;
      }

      .cls-20 {
        fill: #579cb2;
      }

      .cls-21 {
        fill: #180146;
      }

      .cls-22 {
        fill: #1b0444;
      }

      .cls-23 {
        fill: #00fee5;
      }

      .cls-24 {
        fill: #310552;
      }

      .cls-25 {
        fill: #32dacb;
      }

      .cls-26 {
        fill: #180047;
      }

      .cls-27 {
        fill: #00fea6;
      }

      .cls-28 {
        fill: #0265a3;
      }

      .cls-29 {
        fill: #17005d;
      }

      .cls-30 {
        fill: #170163;
      }

      .cls-31 {
        fill: #180066;
      }

      .cls-32 {
        fill: #170063;
      }

      .cls-33 {
        fill: #00ffed;
      }

      .cls-34 {
        fill: #17005c;
      }

      .cls-35 {
        fill: #00e1fe;
      }

      .cls-36 {
        fill: #140153;
      }

      .cls-37 {
        fill: #2e0e30;
      }

      .cls-38 {
        fill: #00ffb6;
      }

      .cls-39 {
        fill: #00fed3;
      }

      .cls-40 {
        fill: #00feed;
      }

      .cls-41 {
        fill: #040159;
      }

      .cls-42 {
        fill: #b50119;
      }

      .cls-43 {
        fill: #01beed;
      }
    </style>
  </defs>
  <g id="_레이어_2" data-name="레이어 2">
    <polygon class="cls-8" points="392.4 19.15 389.36 23.55 394.87 22.19 412.68 20.15 413.83 18.24 408.4 16.77 400.74 15.94 392.64 19.19 392.4 19.15"/>
    <path class="cls-8" d="m418.38,66.26l-9.96,3.23-8.51,1.11s-.68,2.98-.17,3.15,16.34.17,16.68-.43,2.55-4.17,2.89-4.43-.94-2.64-.94-2.64Z"/>
    <polygon class="cls-19" points="419.06 85.24 405.28 88.21 397.23 87.83 395.56 88.05 395.86 88.7 395.59 89.15 395.4 89.2 395.48 91.3 413.96 90.68 419.06 85.24"/>
    <path class="cls-8" d="m457.04,26.63l-9.16.22s-4.05,2.39-4.18,2.49-1.28,2.81-.96,2.87,14.43-1.91,14.62-2.01-.32-3.57-.32-3.57Z"/>
    <path class="cls-16" d="m328.17,76.26l-11.62,4.21-7.98,1.47s-.51,1.91.32,1.91,7.6.32,8.04.32,10.85-2.04,10.85-2.04l1.98-5.55-1.6-.32Z"/>
    <path class="cls-19" d="m226.42,27.92l-10.68.26-2.85,3.15s-.77,1.7.43,1.7,13.53-1.7,13.53-1.7l-.43-3.4Z"/>
    <path class="cls-10" d="m186,27.32c-.17-.09-7.49-.6-7.49-.6l-4.94,1.15s-1.32,2.55-1.32,2.72-.6,1.49,1.15,1.45,13.74-1.83,13.74-1.83l-1.15-2.89Z"/>
    <path class="cls-10" d="m80.21,39.64s.65,1.39.76,2.37.03,1.32.03,1.32l.43-.69s.13-1.67.12-1.84,0-.9-.03-.97-1.32-.2-1.32-.2Z"/>
  </g>
  <g id="_레이어_1_이미지" data-name="레이어 1 이미지">
    <g>
      <path class="cls-38" d="m272.74,53.62c.95,4.27,2.73,8.15,5.17,11.78,3.4,5.05,7.71,9.04,13.3,11.52,3.39,1.51,6.98,2.42,10.69,2.8,9.19.94,17.84-.53,25.58-5.89,1.68-1.16,3.19-2.52,4.63-3.97.56-.57,1.19-1.29,2.14-.58.17,1.72-.29,3.23-1.5,4.49-1.38,1.48-3.14,2.46-4.73,3.66-.23.09-.49.14-.69.27-2.84,1.83-5.95,3-9.14,4.06-2.31.76-4.73.81-7.03,1.48-3.7.38-7.37.28-11.06-.23-12.4-1.72-21.37-8.26-27.42-19.09-.95-1.69-1.48-3.57-2.56-5.19-.69-3.07-1.65-6.08-2-9.22-1.08-9.79-.38-19.35,3.83-28.42,3.71-7.99,9.24-14.29,17.32-18.05,6.23-2.89,12.82-3.57,19.62-2.71,7.64.97,13.96,4.6,19.71,9.47.44.37.85.8,1.46.91.89-.28.88-1.04.9-1.73.04-1.79.02-3.58.04-5.37.02-2.01.88-2.56,2.84-1.81.7,1.09.49,2.39.7,3.6-.15,1.48-.31,2.95-.29,4.44.04,5.11-.01,10.23.03,15.34.01,1.15-.46,1.61-1.53,1.59-.41,0-.82-.07-1.24-.11-.47-.43-.51-.98-.52-1.57-.04-1.76.17-3.54-.23-5.28.51-1.83.1-3.34-1.46-4.53-.63-.47-1.13-1.1-1.72-1.64-5.83-5.35-12.38-9.25-20.44-10.01-12.56-1.18-22.18,3.87-29.11,14.16-5.11,7.59-7.1,16.13-6.79,25.23.12,3.57.31,7.14,1.51,10.56Z"/>
      <path class="cls-11" d="m444.28,72.44c2.93,1.97,6.13,3.6,9.63,3.71,7.2.24,13.79-1.64,18.99-7.03,1.12-1.16,2.36-2.24,3.13-3.7.16-.29.4-.52.87-.7.06,1.15.12,2.24.18,3.34.24,1.78-.58,3.03-1.84,4.22-4.2,3.99-9.26,6.17-14.89,6.94-8.64,1.18-16.17-1.42-22.64-7.18-3.27-2.91-5.65-6.5-7.48-10.45-5.26-15.05,2.4-31,17.46-35.96,7.05-2.32,14.14-2.06,20.87,1.45,3.3,1.72,6.37,3.79,8.55,6.62-.09.91-.82.95-.92,1.48-.42.4-.85.79-1.26,1.2-11.1,10.98-22.01,22.15-33.32,32.92-.28.27-.53.53-.46,1.08,1,.65,1.91,1.57,3.13,2.05Zm11.95-44.92c-4.09-.26-7.82.81-11.26,2.99-.99.66-2.06,1.23-2.96,2-4.5,3.83-7.93,8.37-9.11,14.31-.69,3.45-.79,6.9.35,10.3.8,3.99,2.66,7.41,5.15,10.18,6.14-6.02,12.12-11.86,18.06-17.74,4.58-4.53,9.11-9.11,13.67-13.67.63-.52,1.25-1.04,1.85-1.54-.66-2.99-10.17-7.07-15.75-6.82Z"/>
      <path class="cls-27" d="m332.75,73.77c1.21-1.26,1.67-2.77,1.5-4.49.76.14,1.15-.29,1.42-.92,3.11-7.39,6.21-14.78,9.33-22.16,2.8-6.62,5.66-13.2,8.4-19.84,1.27-3.07,2.74-6.06,3.71-9.25.14-.46.36-.83.8-1.12,1.08,1.04,1.39,2.49,1.95,3.8,3.97,9.32,7.9,18.66,11.84,28,4.14,9.84,8.27,19.68,12.41,29.52.72,1.72,1.48,3.43,2.24,5.14.16.35.28.69.13,1.07-11.31-.01-22.62-.03-33.93-.04-2.66,0-5.32.03-7.98.05-.56-.1-.57-.51-.56-.95,0-.79,0-1.57,0-2.61,12.16,0,24.22,0,36.29,0,.3.09.6.31,1-.07-7.27-17.2-14.55-34.43-21.84-51.65-.4-1.15-.79-2.3-1.58-3.46-8.36,19.7-16.63,39.21-24.88,58.65-.82.04-1.39.07-1.97.1-.6-.11-1.34.15-1.73-.64.17-.38.35-.77.54-1.16,1.27-2.38,2.28-4.87,3.16-7.42.09-.25.36-.58-.23-.53Z"/>
      <path class="cls-11" d="m158.24,61.6c-3.85-11.74-.67-24.47,9.85-32.07,3.93-2.84,8.25-4.53,13.08-5.08,8.73-.99,16.15,1.78,22.55,7.62.62.57,1.39,1.12,1.31,2.15-.07.18-.14.36-.21.54-.28-.05-.47.1-.65.28-1.72,1.74-3.45,3.47-5.17,5.21-9.68,9.8-19.46,19.49-29.3,29.12-.29.28-.55.5-.41,1.05.94.65,1.8,1.57,2.99,2.02.77.74,1.8,1.03,2.7,1.55,2.15,1.24,4.54,2.16,6.94,2.15,2.15,0,4.36.04,6.53-.39,5.06-1,9.33-3.35,12.85-7.11.69,1.07,1.38,2.14,1.99,3.08-.14.74-.56,1.04-.93,1.37-3.59,3.17-7.82,5-12.48,5.88-9.81,1.84-18.15-1.1-25.21-7.94-2.77-2.68-4.8-5.92-6.41-9.42Zm25.99-34.08c-4.09-.26-7.82.81-11.26,2.99-.89.59-1.85,1.09-2.67,1.77-4.74,3.9-8.29,8.61-9.47,14.78-.64,3.36-.74,6.75.41,10.06.8,3.99,2.66,7.41,5.1,10.12,4.48-4.33,8.83-8.45,13.08-12.66,6.27-6.2,12.48-12.46,18.72-18.69.63-.52,1.25-1.05,1.84-1.55-.64-2.99-10.19-7.08-15.76-6.83Z"/>
      <path class="cls-15" d="m83.62,61.97c-.41-1.81-.82-3.62-1.24-5.43.12-.36,0-.72-.03-1.09-.19-2.32-.59-4.63-.12-6.96-.03-.68.05-1.35.26-1.99.97-3.64,2.14-7.2,4.41-10.28,4.66-6.33,10.68-10.66,18.58-11.66,12.46-1.58,21.86,3.55,28.45,13.98,2.22,3.51,3.14,7.55,3.43,11.7.23,7.41-2.03,13.93-6.82,19.62-2.78,3.31-6.21,5.71-10.03,7.61-3.87,1.46-7.87,2.16-12.01,2.06-10.31-.76-17.91-5.83-23.21-14.59-.59-.97-.75-2.19-1.67-2.96Zm16.99-32.49c-.92.1-1.57.73-2.3,1.19-8.38,5.29-12.72,12.84-12.51,22.81.02,1.06-.06,2.38.91,3.28-.26,1.12.14,2.13.52,3.15,2.55,6.83,7.24,11.66,13.87,14.56,3.17,1.38,6.46,1.96,10.02,1.61,2.85-.28,5.63-.63,8.19-1.86,10.01-4.81,16.31-15.73,13.44-27.35.14-.25.02-.48-.03-.72-.9-4.18-2.97-7.72-5.85-10.85-4.62-5.03-10.17-7.95-17.14-7.78-3.23-.22-6.26.51-9.13,1.96Z"/>
      <path class="cls-6" d="m385.27,61.37c-1-2.87-1.66-5.83-2.05-8.83-.54-4.11-1.04-8.25-.7-12.4.43-5.27,1.02-10.53,3.28-15.44,2.15-4.68,5.68-7.75,10.58-9.15,5.22-1.49,10.53-1.53,15.8-.3,4.37,1.02,7.89,3.44,10.56,7.06.48.65.53,1.27.02,1.92-.92.75-1.84,1.5-2.75,2.26-2.8,2.27-5.63,4.5-8.25,6.98h-3.86c-.33-.61,0-.8.3-1.04,2.87-2.31,5.73-4.62,8.59-6.95.28-.22.48-.53.72-.8.76-.39,1.41-.92,2.15-1.58-1.85-2.65-4.36-4.12-7.39-4.81-.65-.29-1.34-.44-2.04-.54-3.22-.47-6.49-.47-9.69-.17-3.85.36-7.42,1.68-9.89,4.98-1.73,1.72-2.67,3.89-3.36,6.17-1.7,5.6-1.92,11.36-1.65,17.16.13,2.94.2,5.89,1.12,8.73.88,5.66,3.51,10.08,8.89,12.52,1.64.75,3.41,1.13,5.19,1.23,5.04.3,10.08.49,14.77-1.92,1.54-.79,2.85-1.84,3.97-3.27v-16.68c1.05.17,2.04-.4,2.97.31-.02,1.62-.05,3.24-.05,4.86,0,7.11.02,14.23.03,21.34-.2,5.27-1.59,10.04-5.82,13.58-3.31,1.99-6.86,3.01-10.76,2.93-3.61-.08-7.23-.02-10.78-.02-.69-.83-.4-1.67-.36-2.42.39-.68,1.02-.58,1.58-.58,3.41,0,6.82.03,10.23,0,7.66-.08,11.6-3.55,12.59-11.11.12-.9.43-1.79.27-2.72.21-1.47.29-2.94.17-4.37-.52-.19-.78.22-1.15.21-.54-.2-.94.08-1.38.34-1.21.73-2.54,1.22-3.9,1.59-3.51.96-7.09,1.21-10.72,1.03-.55-.03-1.06.06-1.55.28-2.06-.8-4.27-1.06-6.33-1.96-3.53-1.55-6.48-3.66-8.32-7.15-.25-.48-.36-1.14-1.05-1.28Z"/>
      <path class="cls-12" d="m28.32,47.24c-.21-.77-.66-1.42-1.09-2.17.62-.78,1.56-1.05,2.35-1.54,1.97-1.22,4.11-2.21,5.94-3.61,3.94-3.03,6.15-7,5.7-12.15.01-1.58.24-3.17-.14-4.72-1.17-4.86-4.22-8.21-8.6-10.39-3.65-1.82-7.61-2.6-11.65-2.94-5.36-.45-10.73-.16-16.1-.23-.27,0-.59-.11-.78.22-.32.35-.21.79-.21,1.19,0,24.14,0,48.28,0,72.42,0,1.04-.03,2.08-.05,3.11-1.23.03-2.47.28-3.65-.3,0-.38,0-.77,0-1.15.82-.29.45-1,.45-1.5.02-22.97.02-45.95.02-68.92,0-2.75-.02-5.49-.02-8.24.63-.63,1.43-.36,2.12-.29,3.81.42,7.62.15,11.43.18,4.35.03,8.72-.03,12.96,1.03,6.28,1.57,11.82,4.36,15.54,9.98.98,1.48,1.39,3.22,2.23,4.76-.43,1.04-.15,2.14-.27,3.21-.08.14-.19.27-.22.42-.5,2.42-.18,4.86-.24,7.3-.02.76-.06,1.5-.37,2.19-1.1,2.45-2.62,4.6-4.62,6.41-2.74,2.48-6.18,3.85-9.21,5.87-.5.33-1.03.22-1.5-.14Z"/>
      <path class="cls-4" d="m158.24,61.6c1.61,3.5,3.64,6.74,6.41,9.42,7.06,6.84,15.4,9.78,25.21,7.94,4.66-.88,8.89-2.71,12.48-5.88.37-.33.79-.62.93-1.37-.61-.94-1.3-2.01-1.99-3.08-.56-1.88-1.12-3.76-1.67-5.65.44.13.45.56.6.88,3.86,8.01,9.94,13.53,18.61,15.71,9.46,2.39,18.05.41,25.45-6.13.77-.68,1.15-1.35.58-2.38-.42-.76-.65-1.62-.97-2.43.05-.35.09-.69.14-1.04.96,2.03,2.14,3.9,3.75,5.49,4.14,4.08,9.03,6.37,14.91,6.37.35.13.69.28,1.01.67.3.96.23,2.04.28,3.41-3.27.46-6.27-.21-9.19-1.58-2.95-1.38-5.2-3.63-7.56-6.17-5.56,6.54-12.7,8.96-20.93,9.04-8.42.08-15.05-3.51-20.48-9.6-.38.22-.59.28-.72.43-3.38,3.69-7.52,6.17-12.36,7.34-3.44.83-6.99.99-10.54.67-2.5-.23-4.93-.74-7.24-1.74-4.87-2.11-8.61-5.6-11.88-9.67-2.51-3.13-4.36-6.57-4.84-10.63Z"/>
      <path class="cls-23" d="m243.89,68.63c.31.81.55,1.67.96,2.43.57,1.03.19,1.7-.58,2.38-7.4,6.54-15.99,8.52-25.45,6.13-8.66-2.18-14.74-7.7-18.61-15.71-.15-.32-.16-.75-.6-.88-.1-.44-.2-.87-.3-1.31-.76-3.42-1.62-6.83-1.31-10.37.15-1.63.45-3.25.68-4.87.91-2.65,1.69-5.34,3.19-7.75.87-1.4,2.01-2.58,2.93-3.93.07-.18.14-.36.21-.54.37.07.62-.12.85-.39,4.15-4.57,9.31-7.47,15.39-8.17,6.9-.79,13.73-.4,19.63,4.07.46.35.92.71,1.37,1.07.16.15.32.3.48.45.45,1.48.29,2.84-.79,4.02-.64-.53-1.26-1.07-1.91-1.58-4.29-3.32-9.06-5.31-14.58-5.16-3.99-.18-7.65.89-11.02,2.99-.34.16-.69.29-1,.49-5.98,3.89-9.74,9.33-11.2,16.3-.74,3.54-.69,7.1.48,10.57.08.4.14.82.25,1.21,1.36,4.66,4.17,8.33,7.77,11.49,3.68,3.23,7.98,5.14,12.78,5.6,5.13.49,9.93-.88,14.35-3.57,2.25-1.37,4.16-3.12,6-4.98Z"/>
      <path class="cls-10" d="m43.98,43.5c-.16-.04-.32-.07-.47-.11.32-.56.35-1.38,1.26-1.41.01.16.04.33.04.49-.01,14.94-.03,29.89-.04,44.83,0,.56-.15,1.18.49,1.65.96-.1,2,.26,2.99-.21.4-.26.25-.68.25-1.03,0-18.85-.03-37.7-.05-56.54,0-.49.11-1-.17-1.47v-4.13c.29-.03.49-.08.69-.08,4.04.02,8.09-.1,12.12.1,5.06.25,10,1.2,14.42,3.88,2.81,1.71,5.02,3.96,5.68,7.35.08.4.03.83.33,1.16-.25.98.4,2.12-.43,3.05-.19-.09-.37-.11-.4-.19-1.52-4.03-4.83-5.97-8.59-7.38-3.9-1.46-7.96-2.05-12.09-2.15-2.91-.07-5.82-.01-8.67-.01-.45.42-.31.91-.31,1.35,0,19.78,0,39.55,0,59.33,0,2.35-.38,2.73-2.76,2.77-.71.01-1.42-.01-2.12,0-.93,0-1.61-.34-1.92-1.27-.07-2.29.22-4.56.26-6.84.07-4.41.01-8.82.01-13.24,0-9.53,0-19.06-.02-28.6,0-.43.4-1.15-.49-1.3Z"/>
      <path class="cls-1" d="m.04,86.14c1.18.58,2.42.32,3.65.3.56-.29.31-.81.31-1.22,0-20.88,0-41.77,0-62.65,0-4.28-.03-8.57-.04-12.85.19-.33.51-.22.78-.22,5.37.07,10.74-.21,16.1.23,4.05.34,8,1.12,11.65,2.94,4.37,2.18,7.43,5.54,8.6,10.39.37,1.55.15,3.14.14,4.72-1.92-7.17-7.35-10.21-13.98-11.79-3.21-.76-6.48-1.11-9.77-1.19-3.37-.07-6.75-.04-10.12-.05-.41,0-.83-.08-1.42.31v76.11c-1.66.77-3.21.63-4.72.47C.43,91.57,0,90.94,0,90.13c0-1.33.02-2.66.04-4Z"/>
      <path class="cls-39" d="m81.52,37.99c-.3-.33-.25-.76-.33-1.16-.66-3.4-2.87-5.65-5.68-7.35-4.42-2.68-9.36-3.63-14.42-3.88-4.03-.2-8.08-.08-12.12-.1-.2,0-.4.04-.69.08,0,1.42,0,2.77,0,4.13-.02.5-.06.99-.06,1.49,0,19.18.02,38.36.03,57.54-1,.47-2.03.11-2.99.21-.64-.46-.49-1.09-.49-1.65,0-14.94.03-29.89.04-44.83,0-.16-.03-.33-.04-.49.05-.33.15-.65.15-.98,0-4.77,0-9.54-.03-14.3,0-.5.12-1.1-.4-1.5.12-1.07-.16-2.17.27-3.21,5.85.14,11.71.18,17.56.25,5.9.07,11.56,1.45,16.42,5.1.73.55,1.4,1.18,2.08,1.79.82.74,1.21,1.66,1.18,2.78-.06,2.04.22,4.1-.47,6.08Z"/>
      <path class="cls-35" d="m241.97,35.26c1.08-1.18,1.24-2.54.79-4.02.39-.37.28-.85.28-1.29,0-7.22-.02-14.43-.05-21.65,0-.45.09-.92-.2-1.33-.01-.61-.16-1.22.14-1.88,1.11-.25,2.23-.17,3.51-.02.05,1.04.09,2.05.13,3.06,0,5.99,0,11.98,0,17.85.55.33.91.27,1.27.18,4.46.19,8.92.07,13.38.07.55,0,1.22-.22,1.36.65,0,.82,0,1.63,0,2.65h-15.07c-.36-.05-.73-.14-1.04.33.02.24.04.55.06.87,0,9.86-.02,19.72-.01,29.58,0,.32.13.64.19.96.08,1.24.14,2.48.78,3.6,2.3,7.33,7.53,10.85,15.03,11.54.31.98.22,2.01.16,3.04-5.88,0-10.77-2.29-14.91-6.37-1.61-1.59-2.79-3.46-3.75-5.49-1.09-2.92-1.21-5.99-1.26-9.04-.09-4.77-.02-9.54-.03-14.31,0-1.62-.05-3.23-.08-4.85,0-1.42.5-2.92-.69-4.14Z"/>
      <path class="cls-33" d="m142.79,22.48c-.05-.61-.17-1.23.19-1.88,1.08-.21,2.17-.13,3.32-.02.48,1.16.11,2.34.27,3.47.01.24.02.49.04.73-.03,2.29-.09,4.57-.09,6.86,0,14.77,0,29.54,0,44.3,0,3.36-.41,6.61-1.98,9.66-2.04,3.96-5.16,6.76-8.99,8.89-.42.15-.85.31-1.27.46-2.33.84-4.69,1.53-7.2,1.51v-3.09c9.23-1.28,14.85-6.24,15.71-15.89.35-.39.21-.87.21-1.32,0-17.46,0-34.91,0-52.37,0-.44.14-.92-.2-1.32Z"/>
      <path class="cls-8" d="m272.74,53.62c-1.2-3.42-1.39-6.99-1.51-10.56-.32-9.1,1.67-17.64,6.79-25.23,6.93-10.29,16.55-15.34,29.11-14.16,8.06.75,14.62,4.66,20.44,10.01.58.53,1.09,1.16,1.72,1.64,1.56,1.18,1.96,2.7,1.46,4.53-3.76-3.7-7.95-6.8-12.78-9-5.3-2.41-10.81-3.35-16.62-2.78-4.4.43-8.46,1.76-12.16,4.1-2.96,1.87-5.58,4.15-7.83,6.89-2.68,3.25-4.77,6.8-6.2,10.74-1.22,3.36-2.13,6.82-2.39,10.41-.25,3.45-.39,6.9-.41,10.35,0,1.05.52,2.02.39,3.08Z"/>
      <path class="cls-34" d="m83.62,61.97c.92.78,1.08,1.99,1.67,2.96,5.3,8.76,12.9,13.82,23.21,14.59.05.38.18.72.53.82,3.11.97,5.89-.81,8.89-.97.23-.27.46-.55.7-.84.48-.03.93-.06,1.34-.09.37-.26.49-.6.54-.98,3.82-1.91,7.25-4.31,10.03-7.61,4.79-5.69,7.05-12.21,6.82-19.62.77.9.95,2.02,1.13,3.12.37,2.33.08,4.64-.32,6.94-.71,4.11-2.15,7.92-4.6,11.32-3.68,5.11-8.14,9.2-14.39,10.95-6.04,1.69-12.07,1.78-18.02-.26-4.48-1.53-8.02-4.5-11.12-7.99-2.16-2.43-4.06-5.07-5.19-8.16-.5-1.36-.83-2.78-1.24-4.18Z"/>
      <path class="cls-8" d="m332.75,73.77c.59-.05.32.28.23.53-.88,2.55-1.9,5.04-3.16,7.42-1.09-.29-1.73.63-2.5,1.05-5.19,2.83-10.68,4.41-16.61,4.78-3.43.21-6.84.23-10.21-.2-6.98-.88-13.12-3.68-18.35-8.49-4-3.68-7.27-7.9-9.58-12.81-1.09-2.33-1.85-4.81-2.47-7.31,1.08,1.62,1.62,3.5,2.56,5.19,6.05,10.83,15.02,17.38,27.42,19.09,3.69.51,7.36.61,11.06.23,1.5.53,3.04.06,4.53.22.31-.36.58-.67.76-.88,4.49,0,7.86-2.43,11.45-4.29.03-.08.07-.15.08-.23.02-.21.03-.41.05-.62,1.59-1.2,3.35-2.19,4.73-3.66Z"/>
      <path class="cls-32" d="m430.24,61.6c1.83,3.96,4.21,7.54,7.48,10.45,6.46,5.76,14,8.36,22.64,7.18,5.64-.77,10.69-2.95,14.89-6.94,1.25-1.19,2.08-2.44,1.84-4.22.24.43.74.49,1.11.78,0,1.57.03,3.15-.01,4.72-.02.72-.34,1.35-.86,1.88-4.55,4.62-9.84,7.6-16.47,8.09-4.19.31-8.29.27-12.31-1.05-2.59-.85-4.95-2.15-7.07-3.85-4.03-3.23-7.46-6.98-9.72-11.69-.81-1.69-1.28-3.49-1.52-5.36Z"/>
      <path class="cls-31" d="m444.28,72.44c-1.22-.47-2.13-1.4-3.13-2.05-.07-.55.18-.81.46-1.08,11.31-10.77,22.23-21.94,33.32-32.92.41-.41.84-.8,1.26-1.2.62,1.06,1.89,1.6,2.43,2.83-2.27,2.26-4.46,4.46-6.67,6.66-8.7,8.67-17.4,17.32-26.07,26.02-.55.55-1.59.69-1.6,1.74Z"/>
      <path class="cls-18" d="m344.55,83.53c2.66-.02,5.32-.05,7.98-.05,11.31,0,22.62.02,33.93.04.07,1.39,1.18,2.41,1.42,3.7-.63.79-1.45.4-2.14.55-2.53-.01-5.07-.04-7.6-.04-10.97,0-21.94.02-32.91.03-.98-.77-.33-1.86-.5-2.78-.09-.47.09-.99-.18-1.45Z"/>
      <path class="cls-7" d="m331.02,83.53c.58-.03,1.16-.06,1.97-.1,8.24-19.44,16.52-38.94,24.88-58.65.79,1.16,1.19,2.31,1.58,3.46-.7.38-.82,1.07-.94,1.76-.92,2.12-1.85,4.24-2.76,6.37-1.86,4.39-3.7,8.79-5.56,13.19-2.16,5.12-4.31,10.24-6.48,15.36-1.52,3.59-3.08,7.17-4.6,10.76-1.41,3.32-2.83,6.64-4.19,9.98-.86,2.13-2.63,2.82-4.85,1.75-.2-.73.3-1.24.62-1.8.37-.67.75-1.31.32-2.09Z"/>
      <path class="cls-8" d="m412.27,18.29c3.03.69,5.54,2.16,7.39,4.81-.74.66-1.39,1.2-2.15,1.58-2.01-1.84-4.59-2.12-7.1-2.67-4.13-.91-8.26-.61-12.21.56-4.63,1.36-7.85,4.54-9.4,9.23-2.12,6.38-2.17,13-2.3,19.61-.02,1.08.49,2.12.26,3.21-.93-2.84-.99-5.8-1.12-8.73-.26-5.8-.04-11.56,1.65-17.16.69-2.27,1.63-4.45,3.36-6.17.5.07,6.09-3.32,8.86-3.74,3.86-.6,7.76-.48,11.65-.12.44.04.83-.01,1.11-.4Z"/>
      <path class="cls-21" d="m416.71,86.58c4.24-3.54,5.62-8.31,5.82-13.58.35-.53.2-1.13.2-1.69.03-7.18.04-14.35.05-21.53.76.48.94,1.26.94,2.05.02,8.87.25,17.75-.08,26.61-.17,4.6-1.64,9.04-5.55,12.1-2.35,1.83-5.05,2.71-8.05,2.98-4.29.38-8.57.12-12.85.24-.49.01-1,.12-1.52-.21-.39-.83-.18-1.73-.18-2.54.41-.66.99-.54,1.51-.54,3.33,0,6.66-.05,10,0,2.76.04,5.33-.64,7.77-1.85.86-.43,1.81-.88,1.95-2.05Z"/>
      <path class="cls-39" d="m82.5,46.5c-.21.65-.29,1.31-.26,1.99-.36.18-.69.35-.97.69-1.45,1.73-3.17,3.15-5.07,4.38-.99.65-2.19.99-2.95,1.81-.17.67.13,1.09.34,1.54,1.63,3.49,3.5,6.87,5.1,10.38,1.03,2.26,1.82,4.63,3.07,6.79.38,2.76.41,5.51.02,8.27-4.12-8.74-8.24-17.48-12.37-26.21-.24-.57-.58-1.12-.24-2.04,5.38-2.49,10.83-5.27,12.15-12.21.74.46.64,1.09.7,1.67.09.99-.27,2.06.5,2.93Z"/>
      <path class="cls-8" d="m385.27,61.37c.69.15.8.8,1.05,1.28,1.84,3.48,4.79,5.59,8.32,7.15,2.05.9,4.26,1.16,6.33,1.96.49.61,1.15.7,1.88.72,4.36.15,8.7.05,12.76-1.81,1.1-.5,2.38-.85,2.9-2.17.37,0,.63-.41,1.15-.21.13,1.43.05,2.9-.17,4.37-2.69,1.18-5.34,2.43-8.34,2.73-5.03.5-10.05.68-14.91-.97-4.57-1.55-7.73-4.75-9.72-9.09-.57-1.25-1.41-2.46-1.24-3.96Z"/>
      <path class="cls-1" d="m44.49,25.2c.52.39.39,1,.4,1.5.04,4.77.03,9.54.03,14.3,0,.33-.1.65-.15.98-.91.04-.94.85-1.26,1.41-2.43,3.73-6.16,5.83-9.93,7.87-.98.53-1.95,1.11-2.96,1.58-.76.36-1.41.22-1.89-.6-.69-1.17-1.63-2.21-1.7-3.59.23-.73.88-.96,1.3-1.41.47.35,1.01.47,1.5.14,3.03-2.02,6.48-3.39,9.21-5.87,2-1.81,3.51-3.96,4.62-6.41.31-.69.35-1.43.37-2.19.07-2.43-.26-4.88.24-7.3.03-.15.14-.28.22-.42Z"/>
      <path class="cls-34" d="m135.54,94.5c3.82-2.13,6.95-4.94,8.99-8.89,1.57-3.05,1.98-6.31,1.98-9.66,0-14.77,0-29.54,0-44.3,0-2.29.06-4.57.09-6.86.27.42.14.89.14,1.34,0,16.88,0,33.76.02,50.64,0,1.46.18,2.92.98,4.22,0,12.48-11.1,20.65-20.56,19.56-.3-.31-.16-.69-.15-1.06.48-.55-.05-1.32.48-1.99h2.12c.47-.35.62-.8,1.39-1.03h2.49c.16-.85.82-.99,1.48-1.09.2-.32.37-.6.55-.88Z"/>
      <path class="cls-30" d="m246.53,30.73c-.02-.32-.04-.63-.06-.87.31-.47.68-.38,1.04-.33.19.32.28.7.79.95,4.27,0,8.67,0,13.07,0,.2,0,.43-.02.6-.12.63-.38,1.19-.15,1.76.14v2.85c-.49.53-1.15.42-1.75.43-4.12,0-8.23,0-12.35,0-.57,0-1.17-.13-1.82.38-.2.98-.12,2.1-.1,3.2.23,8.47.11,16.94-.18,25.41-.02.7-.03,1.4-.04,2.11-.65-1.12-.71-2.36-.78-3.6.02-.12.05-.25.05-.37,0-9.7-.01-19.4-.03-29.1,0-.37.08-.76-.2-1.07Z"/>
      <path class="cls-36" d="m69.39,56.15c4.12,8.74,8.24,17.48,12.37,26.21.38,1.92.26,3.83.13,5.74-.52.04-.68-.25-.76-.5-1.63-5.03-4.29-9.61-6.41-14.42-2.02-4.59-4.14-9.14-6.33-13.66-.76-1.57.19-2.39,1-3.37Z"/>
      <path class="cls-41" d="m81.74,74.09c-1.24-2.16-2.04-4.53-3.07-6.79-1.6-3.51-3.46-6.89-5.1-10.38-.21-.45-.51-.87-.34-1.54.76-.82,1.96-1.16,2.95-1.81,1.9-1.24,3.62-2.65,5.07-4.38.28-.34.62-.51.97-.69-.47,2.33-.07,4.64.12,6.96.03.37.15.72.03,1.09-.32-.02-.65-.04-1.02-.06-1.27,1.7-3.33,2.42-4.86,3.91-.04,1.45.89,2.56,1.39,3.78,1.05,2.54,2.4,4.96,3.5,7.49.31.72.43,1.6.35,2.44Z"/>
      <path class="cls-26" d="m420,26.49c.92-.75,1.84-1.5,2.75-2.26.67,1.04,1.34,2.07,1.94,3-.08.58-.39.79-.68,1.03-3.36,2.85-6.71,5.71-10.06,8.57-1.82,1.56-3.87.83-6.22.88,1.29-1.89,3.28-2.41,4.28-3.98,2.98-1.76,5.45-4.13,7.96-6.67,0-.08.02-.33.03-.58Z"/>
      <path class="cls-24" d="m147.74,80.99c-.8-1.3-.98-2.76-.98-4.22-.02-16.88-.01-33.76-.02-50.64,0-.45.13-.92-.14-1.34-.01-.24-.02-.49-.04-.73,1.13.57,1.24,1.55,1.23,2.7-.02,17.79,0,35.58,0,53.37,0,.29-.04.58-.06.87Z"/>
      <path class="cls-22" d="m331.5,26.69c.41.04.82.1,1.24.11,1.07.02,1.54-.44,1.53-1.59-.05-5.11,0-10.23-.03-15.34-.01-1.49.15-2.96.29-4.44.91.91,1.19,2.01,1.18,3.29-.02,6.54,0,13.07.02,19.61,0,.46.03.93-.08,1.36-.26.99-.94,1.53-1.99,1.56-1.02.02-1.61-.45-1.88-1.45-.27-1.02-.18-2.07-.28-3.1Z"/>
      <path class="cls-37" d="m358.51,30.01c.12-.69.24-1.38.94-1.76,7.28,17.23,14.57,34.46,21.84,51.66-.4.39-.7.16-1,.07.21-1.09-.51-1.9-.89-2.8-2.06-4.93-4.19-9.82-6.28-14.73-3.12-7.31-6.28-14.59-9.3-21.94-1.16-2.82-2.56-5.55-3.45-8.5-.26-.84-.76-1.77-1.85-2Z"/>
      <path class="cls-40" d="m142.19,6.94c-1-1.4-1.11-2.92-.15-4.28.91-1.3,2.37-1.32,3.82-.93,1.24.34,2.01,1.24,2.11,2.59.05.62,0,1.24,0,1.86-1.67,1.74-4,2.04-5.79.76Z"/>
      <path class="cls-29" d="m142.19,6.94c1.79,1.28,4.12.97,5.79-.76,1.39,1.07,1.74,3.01.82,4.55-.73,1.22-3.14,1.81-4.62,1.08-1.32-.65-2.19-1.62-2.01-3.24.06-.53.02-1.08.03-1.62Z"/>
      <path class="cls-2" d="m247.84,26.16c-.36.09-.73.14-1.27-.18,0-5.88,0-11.87,0-17.85,1.12.7,1.26,1.77,1.24,2.99-.06,4.61-.04,9.21-.05,13.82,0,.41.05.82.08,1.23Z"/>
      <path class="cls-43" d="m.47,6.33c0,2.75.02,5.49.02,8.24,0,22.97,0,45.95-.02,68.92,0,.5.38,1.21-.45,1.5.26-.45.19-.95.19-1.44,0-23.97,0-47.95,0-71.92,0-1.77-.08-3.55.24-5.31Z"/>
      <path class="cls-25" d="m142.79,22.48c.34.4.2.88.2,1.32,0,17.46,0,34.91,0,52.37,0,.44.13.92-.21,1.32-.01-4.95-.03-9.89-.03-14.84,0-13.06,0-26.11,0-39.17,0-.33.03-.66.04-.99Z"/>
      <path class="cls-42" d="m345.24,87.76c10.97,0,21.94-.02,32.91-.03,2.53,0,5.07.03,7.6.04-.4.32-.88.19-1.33.19-12.66,0-25.33,0-37.99,0-.4,0-.84.12-1.19-.21Z"/>
      <path class="cls-13" d="m135.54,94.5c-.17.28-.35.56-.55.88-.66.1-1.33.24-1.48,1.09h-2.49c-.77.24-.91.69-1.39,1.03h-2.12c-.54.66,0,1.44-.48,1.99.01-1.01.02-2.01.03-3.02,2.51.02,4.87-.67,7.2-1.51.42-.15.85-.31,1.27-.46Z"/>
      <path class="cls-9" d="m422.78,49.78c-.01,7.18-.02,14.35-.05,21.53,0,.57.15,1.17-.2,1.69-.01-7.11-.02-14.23-.03-21.34,0-1.62.03-3.24.05-4.86.32.97-.02,2,.23,2.98Z"/>
      <path class="cls-20" d="m242.78,6.97c.29.41.2.88.2,1.33.02,7.22.04,14.43.05,21.65,0,.44.11.92-.28,1.29-.16-.15-.32-.3-.48-.45.71-.32.51-.94.51-1.51,0-7.44,0-14.87,0-22.31Z"/>
      <path class="cls-19" d="m470.13,35.89c-1.33-1.08-2.9-1.73-4.46-2.33-4.44-1.71-9.04-2.22-13.71-1.18-3.23.72-6.21,2.14-8.75,4.27-3.31,2.77-6.17,5.92-7.84,10.02-1.19,2.93-1.63,5.99-1.9,9.11-.04.45,0,.92-.23,1.34-1.15-3.4-1.04-6.85-.35-10.3,1.18-5.94,4.61-10.48,9.11-14.31.9-.77,1.97-1.34,2.96-2,.66-.06,1.37.15,1.97-.18,1.58-.86,3.33-1.21,5.03-1.65,1.22-.32,2.55-.21,3.86-.29.09-.13.21-.25.27-.4.07-.15.09-.32.13-.47,5.58-.25,15.1,3.83,15.75,6.82-.6.5-1.23,1.02-1.85,1.54Z"/>
      <path class="cls-19" d="m198.14,35.9c-1.37-1.09-2.98-1.76-4.59-2.37-4.45-1.7-9.06-2.2-13.71-1.1-4.16.98-7.66,3.17-10.78,6.14-4.97,4.72-7.25,10.52-7.6,17.22-.02.46,0,.92-.22,1.34-1.15-3.31-1.05-6.7-.41-10.06,1.18-6.17,4.72-10.88,9.47-14.78.82-.67,1.77-1.18,2.67-1.77.66-.07,1.36.15,1.97-.18,1.58-.85,3.33-1.21,5.02-1.65,1.22-.32,2.55-.21,3.82-.28.29-.24.43-.52.44-.87,5.57-.25,15.12,3.84,15.76,6.83-.59.5-1.22,1.02-1.84,1.55Z"/>
      <path class="cls-5" d="m198.69,46.43c-.74.05-1.15.61-1.61,1.07-7.77,7.75-15.55,15.5-23.29,23.28-.52.52-1.52.64-1.52,1.64-1.19-.45-2.05-1.37-2.99-2.02-.14-.55.12-.77.41-1.05,9.85-9.63,19.63-19.32,29.3-29.12,1.72-1.74,3.45-3.47,5.17-5.21.18-.19.37-.33.65-.28-.93,1.35-2.06,2.53-2.93,3.93-1.5,2.41-2.28,5.11-3.19,7.75Z"/>
      <path class="cls-34" d="m132.75,46.87c-1.94-3.91-4.34-7.5-7.86-10.14-5.13-3.84-10.89-5.52-17.32-4.58-8.64,1.26-14.41,6.3-18.31,13.81-1.08,2.08-1.51,4.39-2.05,6.65-.33,1.38-.53,2.74-.5,4.15-.97-.9-.89-2.21-.91-3.28-.21-9.97,4.13-17.52,12.51-22.81.73-.46,1.38-1.08,2.3-1.19,1.55,0,3.14.26,4.51-.79.34-.26.79-.19,1.21-.19.91,0,1.81,0,2.68,0,.29-.38.51-.68.73-.98,6.97-.17,12.52,2.75,17.14,7.78,2.88,3.13,4.95,6.67,5.85,10.85.05.24.17.48.03.72Z"/>
      <path class="cls-14" d="m120.51,77.46c-.05.38-.17.72-.54.98-.41.03-.86.06-1.34.09-.24.28-.47.57-.7.84-3,.16-5.78,1.93-8.89.97-.35-.1-.48-.43-.53-.82,4.14.1,8.14-.6,12.01-2.06Z"/>
      <path class="cls-34" d="m109.73,27.52c-.22.3-.44.59-.73.98-.87,0-1.77,0-2.68,0-.41,0-.87-.07-1.21.19-1.37,1.05-2.96.8-4.51.79,2.87-1.45,5.9-2.17,9.13-1.96Z"/>
      <path class="cls-28" d="m3.95,9.71c.01,4.28.04,8.57.04,12.85,0,20.88.01,41.77,0,62.65,0,.41.24.93-.31,1.22.02-1.04.05-2.08.05-3.11,0-24.14,0-48.28,0-72.42,0-.41-.11-.84.21-1.19Z"/>
      <path class="cls-16" d="m242.66,39.39c-1.44-1.67-3.38-2.65-5.25-3.7-2.97-1.66-6.21-2.53-9.61-2.75-4.48-.29-8.69.63-12.53,2.95-3.38,2.04-6.28,4.62-8.44,7.99-1.85,2.89-2.84,6.06-3.59,9.37-.42,1.87-.79,3.7-.51,5.62-1.17-3.48-1.23-7.03-.48-10.57,1.46-6.97,5.22-12.41,11.2-16.3.31-.2.67-.33,1-.49.57-.05,1.29.1,1.7-.19,1.62-1.13,3.64-.76,5.34-1.61,1.09-.54,2.38-.08,3.54-.31.28-.24.43-.53.45-.88,5.52-.15,10.28,1.84,14.58,5.16.65.5,1.27,1.05,1.91,1.58,1.2,1.22.69,2.72.69,4.14Z"/>
      <path class="cls-3" d="m48.25,88.74c-.01-19.18-.03-38.36-.03-57.54,0-.5.04-.99.06-1.49.27.46.17.98.17,1.47.02,18.85.04,37.7.05,56.54,0,.35.15.76-.25,1.03Z"/>
      <path class="cls-17" d="m246.53,30.73c.29.32.2.71.2,1.07.01,9.7.02,19.4.03,29.1,0,.12-.03.25-.05.37-.07-.32-.19-.64-.19-.96,0-9.86,0-19.72.01-29.58Z"/>
    </g>
    <polygon class="cls-26" points="412.36 33.64 412.01 33.74 411.08 34.68 409.48 35.99 408.8 36.94 412.36 33.64"/>
    <path class="cls-6" d="m422.97,22.96s.29.24.14.67-.05.46-.38.75-2.35,2.03-3.01,2.62-7.5,6.31-7.58,6.36-.41.1-.41.1l11.24-10.5Z"/>
    <path class="cls-6" d="m423.13,23.26s.13.51.05.72-.05.29-1.1,1.16-2.7,2.09-2.7,2.09l3.75-3.97Z"/>
    <path class="cls-6" d="m385.18,61.12s.36.96.41,1.06.92,1.75,1.32,2.34,1.29,1.55,1.72,1.91.94.85,1.44,1.15.9.5,1.6.87,1.71.87,1.98,1,.45.23.73.32.72.22.85.27.3.11.3.11l-.1-1.39-10.23-7.64Z"/>
    <path class="cls-8" d="m398.49,70.96c.72.17,1.77.45,2.45.49s1.06.04,1.38.04-.7,1.02-.7,1.02l-2.17-.64-.96-.91Z"/>
    <path class="cls-6" d="m418.26,68.11l-1.02.46s-1.43.66-1.44.69-.86.59-.86.59l-.36.19s1.28-.48,1.55-.57,1.96-.79,2.26-.88,1.1-.36,1.2-.41.11,1.43.13,1.56-.06,1.72-.27,3.47-.2,2.19-.33,2.86,1.69-.72,1.69-.72l.29-8.94-2.84,1.71Z"/>
  </g>
</svg>